<?xml version="1.0" encoding="UTF-8" standalone="no"?>
<svg
   xmlns:dc="http://purl.org/dc/elements/1.1/"
   xmlns:cc="http://creativecommons.org/ns#"
   xmlns:rdf="http://www.w3.org/1999/02/22-rdf-syntax-ns#"
   xmlns:svg="http://www.w3.org/2000/svg"
   xmlns="http://www.w3.org/2000/svg"
   xmlns:sodipodi="http://sodipodi.sourceforge.net/DTD/sodipodi-0.dtd"
   xmlns:inkscape="http://www.inkscape.org/namespaces/inkscape"
   id="regular"
   enable-background="new 0 0 24 24"
   height="512"
   viewBox="0 0 24 24"
   width="512"
   version="1.1"
   sodipodi:docname="spotify.svg"
   inkscape:version="1.0.1 (3bc2e813f5, 2020-09-07)">
  <metadata
     id="metadata15">
    <rdf:RDF>
      <cc:Work
         rdf:about="">
        <dc:format>image/svg+xml</dc:format>
        <dc:type
           rdf:resource="http://purl.org/dc/dcmitype/StillImage" />
        <dc:title></dc:title>
      </cc:Work>
    </rdf:RDF>
  </metadata>
  <defs
     id="defs13" />
  <sodipodi:namedview
     pagecolor="#ffffff"
     bordercolor="#666666"
     borderopacity="1"
     objecttolerance="10"
     gridtolerance="10"
     guidetolerance="10"
     inkscape:pageopacity="0"
     inkscape:pageshadow="2"
     inkscape:window-width="1920"
     inkscape:window-height="1020"
     id="namedview11"
     showgrid="false"
     inkscape:zoom="1.6757812"
     inkscape:cx="257.19347"
     inkscape:cy="208.26107"
     inkscape:window-x="1920"
     inkscape:window-y="28"
     inkscape:window-maximized="1"
     inkscape:current-layer="regular" />
  <path
     d="m17.672 16.718c-3.232-2.129-7.295-2.646-12.076-1.532-.96.223-.636 1.68.34 1.461 7.692-1.788 10.547 1.448 11.323 1.448.742-.001 1.033-.968.413-1.377z"
     id="path2"
     style="fill:#ffffff" />
  <path
     d="m5.257 12.896c4.301-1.018 9.184-.426 12.744 1.542.866.479 1.592-.834.726-1.312-3.875-2.142-9.167-2.788-13.815-1.689-.964.227-.623 1.686.345 1.459z"
     id="path4"
     style="fill:#ffffff" />
  <path
     d="m4.689 8.994c4.53-1.386 10.885-.626 14.469 1.73.823.541 1.654-.708.824-1.253-3.98-2.617-10.742-3.438-15.732-1.912-.952.291-.504 1.726.439 1.435z"
     id="path6"
     style="fill:#ffffff" />
  <path
     d="m12 24c6.617 0 12-5.383 12-12s-5.383-12-12-12-12 5.383-12 12 5.383 12 12 12zm0-22.5c5.79 0 10.5 4.71 10.5 10.5s-4.71 10.5-10.5 10.5-10.5-4.71-10.5-10.5 4.71-10.5 10.5-10.5z"
     id="path8"
     style="fill:#ffffff" />
</svg>
